# xmcd
#
# Track frame offsets: 
#        150
#        15522
#        31600
#        43597
#        60780
#        75295
#        96825
#        114042
#        129627
#        141642
#
# Disc length: 2195 seconds
#
# Revision: 4
# Processed by: cddbd v1.5.2PL0 Copyright (c) Steve Scherf et al.
# Submitted via: ExactAudioCopyFreeDBPlugin 1.0
#
DISCID=6c08910a
DTITLE=Mavericks - From Hell To Paradise
DYEAR=1998
DGENRE=Country
TTITLE0=Mr. Jones
TTITLE1=The End of The Line
TTITLE2=Excuse Me (I Think I've A Heartache)
TTITLE3=This Broken Heart
TTITLE4=I Got You
TTITLE5=From Hell To Paradise
TTITLE6=A Better Way
TTITLE7=Forever Blue
TTITLE8=Hey Good Lookin'
TTITLE9=Children
EXTD=DDD-MCA RECORDS,1998-(872482)
EXTT0=
EXTT1=
EXTT2=
EXTT3=
EXTT4=
EXTT5=
EXTT6=
EXTT7=
EXTT8=
EXTT9=
PLAYORDER=
